<!--?xml version="1.0" standalone="no"?-->
              <svg id="sw-js-blob-svg" viewBox="0 0 100 100" xmlns="http://www.w3.org/2000/svg" version="1.1">
                    <defs> 
                        <linearGradient id="sw-gradient" x1="0" x2="1" y1="1" y2="0">
                            <stop id="stop1" stop-color="rgba(221, 131, 75, 1)" offset="0%"></stop>
                            <stop id="stop2" stop-color="rgba(221, 131, 75, 1)" offset="100%"></stop>
                        </linearGradient>
                    </defs>
                <path fill="url(#sw-gradient)" d="M23.6,-35.1C28.9,-28.6,30.3,-19.5,31.9,-11.2C33.4,-2.9,34.9,4.5,34,12.1C33,19.8,29.5,27.8,23.4,32.2C17.3,36.6,8.6,37.5,0.2,37.2C-8.2,36.9,-16.5,35.4,-24.1,31.5C-31.7,27.6,-38.7,21.2,-39.4,14C-40,6.8,-34.1,-1.2,-29.6,-7.8C-25,-14.5,-21.6,-19.8,-16.9,-26.5C-12.2,-33.2,-6.1,-41.2,1.5,-43.3C9.1,-45.4,18.3,-41.6,23.6,-35.1Z" width="100%" height="100%" transform="translate(50 50)" stroke-width="0" style="transition: 0.3s;" stroke="url(#sw-gradient)"></path>
              </svg>