<?xml version="1.0" standalone="no"?>
<svg xmlns:xlink="http://www.w3.org/1999/xlink" id="wave" style="transform:rotate(180deg); transition: 0.3s" viewBox="0 0 1440 100" version="1.1" xmlns="http://www.w3.org/2000/svg"><defs><linearGradient id="sw-gradient-0" x1="0" x2="0" y1="1" y2="0"><stop stop-color="rgba(36, 28, 24, 1)" offset="0%"/><stop stop-color="rgba(36, 28, 24, 1)" offset="100%"/></linearGradient></defs><path style="transform:translate(0, 0px); opacity:1" fill="url(#sw-gradient-0)" d="M0,70L48,58.3C96,47,192,23,288,21.7C384,20,480,40,576,55C672,70,768,80,864,81.7C960,83,1056,77,1152,65C1248,53,1344,37,1440,40C1536,43,1632,67,1728,68.3C1824,70,1920,50,2016,43.3C2112,37,2208,43,2304,48.3C2400,53,2496,57,2592,55C2688,53,2784,47,2880,48.3C2976,50,3072,60,3168,53.3C3264,47,3360,23,3456,18.3C3552,13,3648,27,3744,36.7C3840,47,3936,53,4032,51.7C4128,50,4224,40,4320,30C4416,20,4512,10,4608,5C4704,0,4800,0,4896,1.7C4992,3,5088,7,5184,11.7C5280,17,5376,23,5472,25C5568,27,5664,23,5760,23.3C5856,23,5952,27,6048,26.7C6144,27,6240,23,6336,21.7C6432,20,6528,20,6624,20C6720,20,6816,20,6864,20L6912,20L6912,100L6864,100C6816,100,6720,100,6624,100C6528,100,6432,100,6336,100C6240,100,6144,100,6048,100C5952,100,5856,100,5760,100C5664,100,5568,100,5472,100C5376,100,5280,100,5184,100C5088,100,4992,100,4896,100C4800,100,4704,100,4608,100C4512,100,4416,100,4320,100C4224,100,4128,100,4032,100C3936,100,3840,100,3744,100C3648,100,3552,100,3456,100C3360,100,3264,100,3168,100C3072,100,2976,100,2880,100C2784,100,2688,100,2592,100C2496,100,2400,100,2304,100C2208,100,2112,100,2016,100C1920,100,1824,100,1728,100C1632,100,1536,100,1440,100C1344,100,1248,100,1152,100C1056,100,960,100,864,100C768,100,672,100,576,100C480,100,384,100,288,100C192,100,96,100,48,100L0,100Z"/></svg>